<svg width="28" height="20" fill="none" xmlns="http://www.w3.org/2000/svg"><path d="M14.793 7.32l.084.006c.11.016.215.068.29.179l4.76 6.746 1.213-1.895c.093-.138.233-.23.373-.23.14 0 .28.046.374.184l4.246 6.1h1.4c.28 0 .467.184.467.461s-.187.462-.467.462H.467c-.28 0-.467-.184-.467-.462 0-.277.187-.462.467-.462H1.82L7 9.492a.491.491 0 01.42-.231.49.49 0 01.42.23l2.473 3.974 4.107-5.96c.093-.093.233-.185.373-.185zm-.046 1.34l-4.154 5.96c-.046.093-.233.185-.373.185-.14 0-.28-.092-.373-.23L7.42 10.646l-4.527 7.808H24.92l-3.5-4.99-1.213 1.895c-.094.138-.234.23-.374.23a.426.426 0 01-.373-.184L14.747 8.66zM23.333.667c1.68 0 3.034 1.34 3.034 3.003s-1.354 3.003-3.034 3.003c-1.68 0-3.033-1.34-3.033-3.003S21.653.667 23.333.667zm0 .924c-1.166 0-2.1.924-2.1 2.079 0 1.155.934 2.08 2.1 2.08 1.167 0 2.1-.925 2.1-2.08s-.933-2.08-2.1-2.08z" fill="#fff"/></svg>