<svg width="28" height="26" fill="none" xmlns="http://www.w3.org/2000/svg"><path d="M25.527 2.988H9.24A4.793 4.793 0 004.853.167C2.147.213 0 2.34 0 4.977v16.047c0 2.636 2.147 4.81 4.853 4.81h20.674c1.4 0 2.473-1.11 2.473-2.452V5.485a2.488 2.488 0 00-2.473-2.497zM.933 4.976c0-2.127 1.727-3.884 3.92-3.884 2.194 0 3.92 1.71 3.92 3.884v13.227a4.83 4.83 0 00-3.92-1.989 4.896 4.896 0 00-3.92 1.989V4.976zm0 16.094c0-2.127 1.727-3.885 3.92-3.885 2.194 0 3.92 1.712 3.92 3.885 0 2.174-1.726 3.885-3.92 3.885-2.193 0-3.92-1.758-3.92-3.885zm26.134 2.312c0 .833-.7 1.526-1.54 1.526H7.7c1.213-.878 2.007-2.266 2.007-3.884V4.976c0-.37-.047-.74-.14-1.063h15.96c.84 0 1.54.693 1.54 1.572v17.897z" fill="#fff"/></svg>